<svg xmlns="http://www.w3.org/2000/svg" width="24" height="16" fill="none" viewBox="0 0 24 16"><g clip-path="url(#clip0_6871_29930)"><path fill="#E32227" d="M16.616 15.598a7.377 7.377 0 0 1-6.497-3.885.178.178 0 0 1 .311-.169 7.023 7.023 0 0 0 6.186 3.7c3.875 0 7.026-3.16 7.026-7.045 0-3.884-3.152-7.045-7.026-7.045a7.058 7.058 0 0 0-6.365 4.054.177.177 0 1 1-.32-.151A7.413 7.413 0 0 1 16.616.8c4.07 0 7.38 3.32 7.38 7.4s-3.31 7.4-7.38 7.4Z"/><path fill="#F8951D" fill-rule="evenodd" d="M16.621 2.031c3.398 0 6.153 2.762 6.153 6.168 0 3.407-2.755 6.168-6.153 6.168-3.398 0-6.152-2.761-6.152-6.168 0-3.406 2.754-6.168 6.152-6.168Z" clip-rule="evenodd"/><path fill="#044559" d="m5.771 6.272-.466.359a2.545 2.545 0 0 0-.925-.763 2.688 2.688 0 0 0-1.185-.259c-.47 0-.906.114-1.308.34-.4.227-.71.532-.931.914-.22.382-.332.813-.332 1.29 0 .722.247 1.325.74 1.808.493.483 1.115.725 1.868.725.826 0 1.516-.324 2.072-.973l.467.355a2.979 2.979 0 0 1-1.102.87c-.44.205-.932.308-1.474.308-1.033 0-1.849-.344-2.444-1.034C.25 9.632 0 8.928 0 8.105c0-.866.303-1.595.908-2.186.607-.592 1.367-.888 2.28-.888.55 0 1.047.11 1.491.326a2.92 2.92 0 0 1 1.093.915M7.06 4.924a.44.44 0 0 1 .326.137c.09.09.136.202.136.33a.445.445 0 0 1-.136.327.439.439 0 0 1-.326.138.434.434 0 0 1-.324-.138.448.448 0 0 1-.135-.327c0-.127.045-.239.135-.33a.435.435 0 0 1 .324-.137ZM6.782 6.72h.56v4.376h-.56V6.72Zm1.515 0h.575v.64a1.98 1.98 0 0 1 .543-.564c.19-.122.389-.184.595-.184.156 0 .322.05.498.148l-.293.473a.785.785 0 0 0-.297-.077c-.188 0-.369.077-.543.23-.174.154-.307.395-.399.719-.07.249-.104.753-.104 1.51v1.48h-.575V6.721Zm6.929.909-.446.277c-.386-.51-.913-.766-1.582-.766-.534 0-.978.172-1.332.514a1.671 1.671 0 0 0-.528 1.245c0 .32.08.618.243.898.162.28.385.499.669.654.282.155.6.232.952.232.644 0 1.17-.255 1.578-.766l.446.294c-.21.315-.491.558-.843.732-.353.173-.755.26-1.205.26-.694 0-1.268-.22-1.724-.658a2.14 2.14 0 0 1-.683-1.602c0-.421.106-.814.32-1.177.213-.362.506-.645.879-.849.374-.203.79-.305 1.252-.305.29 0 .57.044.84.132.268.088.497.203.685.345.19.141.348.321.48.54m.995-2.6h.559v6.067h-.56V5.03Zm5.413 4.616.474.25a2.6 2.6 0 0 1-.54.736 2.173 2.173 0 0 1-.688.426 2.414 2.414 0 0 1-.866.146c-.715 0-1.273-.233-1.675-.7-.403-.468-.605-.995-.605-1.583 0-.553.172-1.048.513-1.48.431-.551 1.011-.827 1.736-.827.724 0 1.344.283 1.79.847.316.398.477.896.483 1.493H18.31c.01.507.174.922.488 1.245.315.324.704.486 1.166.486a1.894 1.894 0 0 0 1.19-.422c.149-.128.309-.332.48-.616m.006-1.179c-.075-.3-.185-.54-.329-.72a1.567 1.567 0 0 0-.573-.434 1.759 1.759 0 0 0-.747-.165c-.43 0-.801.138-1.11.413-.228.202-.398.503-.514.906h3.273Z"/></g><defs><clipPath id="clip0_6871_29930"><path fill="#fff" d="M0 0h24v16H0z"/></clipPath></defs></svg>